<svg width="166" height="23" viewBox="0 0 166 23" fill="none" xmlns="http://www.w3.org/2000/svg">
<path d="M76.6253 18H69.9094V0.545452H76.5572C78.3526 0.545452 79.9037 0.894884 81.2106 1.59375C82.5231 2.28693 83.5344 3.28693 84.2447 4.59375C84.9606 5.89488 85.3185 7.45454 85.3185 9.27273C85.3185 11.0909 84.9634 12.6534 84.2532 13.9602C83.5429 15.2614 82.5373 16.2614 81.2361 16.9602C79.935 17.6534 78.3981 18 76.6253 18ZM74.6481 13.9773H76.4549C77.3185 13.9773 78.0543 13.8381 78.6623 13.5597C79.2759 13.2812 79.7418 12.8011 80.06 12.1193C80.3839 11.4375 80.5458 10.4886 80.5458 9.27273C80.5458 8.05682 80.381 7.10795 80.0515 6.42613C79.7276 5.74432 79.2503 5.2642 78.6197 4.98579C77.9947 4.70738 77.2276 4.56818 76.3185 4.56818H74.6481V13.9773Z" fill="#1E293B"/>
<path d="M55.1019 18H49.9883L55.7496 0.545452H62.2269L67.9883 18H62.8746L59.0565 5.35227H58.9201L55.1019 18ZM54.1474 11.1136H63.761V14.6591H54.1474V11.1136Z" fill="#1E293B"/>
<path d="M35.3982 18V0.545452H47.9777V4.36363H40.1368V7.36363H47.33V11.1818H40.1368V14.1818H47.9436V18H35.3982Z" fill="#1E293B"/>
<path d="M19.127 18V0.545452H26.661C27.9565 0.545452 29.09 0.781248 30.0616 1.25284C31.0332 1.72443 31.7889 2.40341 32.3287 3.28977C32.8684 4.17613 33.1383 5.23863 33.1383 6.47727C33.1383 7.72727 32.8599 8.78125 32.3031 9.6392C31.752 10.4972 30.9764 11.1449 29.9764 11.5824C28.9821 12.0199 27.8201 12.2386 26.4906 12.2386H21.9906V8.55682H25.536C26.0929 8.55682 26.5673 8.48863 26.9593 8.35227C27.3571 8.21022 27.661 7.98579 27.8713 7.67898C28.0872 7.37216 28.1951 6.97159 28.1951 6.47727C28.1951 5.97727 28.0872 5.57102 27.8713 5.25852C27.661 4.94034 27.3571 4.70738 26.9593 4.55966C26.5673 4.40625 26.0929 4.32954 25.536 4.32954H23.8656V18H19.127ZM29.3542 9.98863L33.7179 18H28.5701L24.3088 9.98863H29.3542Z" fill="#1E293B"/>
<path d="M149.962 18V0.545452H154.701V7.60227H154.939L160.189 0.545452H165.712L159.814 8.31818L165.848 18H160.189L156.269 11.4545L154.701 13.5V18H149.962Z" fill="#475569"/>
<path d="M147.572 7.09091H142.765C142.731 6.69318 142.64 6.33238 142.493 6.00852C142.351 5.68466 142.152 5.40625 141.896 5.17329C141.646 4.93466 141.342 4.75284 140.984 4.62784C140.626 4.49716 140.22 4.43182 139.765 4.43182C138.97 4.43182 138.297 4.625 137.745 5.01136C137.2 5.39773 136.785 5.9517 136.501 6.67329C136.223 7.39488 136.083 8.26136 136.083 9.27273C136.083 10.3409 136.226 11.2358 136.51 11.9574C136.799 12.6733 137.217 13.2131 137.762 13.5767C138.308 13.9347 138.964 14.1136 139.731 14.1136C140.169 14.1136 140.561 14.0597 140.907 13.9517C141.254 13.8381 141.555 13.6761 141.811 13.4659C142.066 13.2557 142.274 13.0028 142.433 12.7074C142.598 12.4062 142.708 12.0682 142.765 11.6932L147.572 11.7273C147.515 12.4659 147.308 13.2187 146.95 13.9858C146.592 14.7472 146.083 15.4517 145.424 16.0994C144.771 16.7415 143.961 17.2585 142.995 17.6506C142.03 18.0426 140.907 18.2386 139.629 18.2386C138.027 18.2386 136.589 17.8949 135.316 17.2074C134.049 16.5199 133.047 15.5085 132.308 14.1733C131.575 12.8381 131.208 11.2045 131.208 9.27273C131.208 7.32954 131.583 5.69318 132.333 4.36363C133.083 3.02841 134.095 2.01988 135.368 1.33807C136.64 0.650566 138.061 0.306816 139.629 0.306816C140.731 0.306816 141.745 0.457384 142.672 0.75852C143.598 1.05966 144.41 1.5 145.109 2.07954C145.808 2.65341 146.37 3.36079 146.797 4.2017C147.223 5.04261 147.481 6.00568 147.572 7.09091Z" fill="#475569"/>
<path d="M128.791 0.545452V18H124.052V0.545452H128.791Z" fill="#475569"/>
<path d="M116.821 0.545452H121.56V11.7273C121.56 13.0568 121.242 14.2074 120.606 15.179C119.975 16.1449 119.094 16.892 117.964 17.4205C116.833 17.9432 115.52 18.2045 114.026 18.2045C112.52 18.2045 111.202 17.9432 110.071 17.4205C108.941 16.892 108.06 16.1449 107.429 15.179C106.804 14.2074 106.492 13.0568 106.492 11.7273V0.545452H111.231V11.3182C111.231 11.858 111.35 12.3409 111.589 12.767C111.827 13.1875 112.157 13.517 112.577 13.7557C113.003 13.9943 113.486 14.1136 114.026 14.1136C114.571 14.1136 115.054 13.9943 115.475 13.7557C115.895 13.517 116.225 13.1875 116.464 12.767C116.702 12.3409 116.821 11.858 116.821 11.3182V0.545452Z" fill="#475569"/>
<path d="M93.877 11.5227H97.5588L98.8884 13.1932L101.138 15.75L104.07 19.2955H99.877L97.7975 16.875L96.3997 14.8636L93.877 11.5227ZM104.036 9.27273C104.036 11.2159 103.658 12.8551 102.903 14.1903C102.147 15.5199 101.127 16.5284 99.8429 17.2159C98.5588 17.8977 97.127 18.2386 95.5475 18.2386C93.9566 18.2386 92.5191 17.8949 91.235 17.2074C89.9566 16.5142 88.9395 15.5028 88.1838 14.1733C87.4338 12.8381 87.0588 11.2045 87.0588 9.27273C87.0588 7.32954 87.4338 5.69318 88.1838 4.36363C88.9395 3.02841 89.9566 2.01988 91.235 1.33807C92.5191 0.650566 93.9566 0.306816 95.5475 0.306816C97.127 0.306816 98.5588 0.650566 99.8429 1.33807C101.127 2.01988 102.147 3.02841 102.903 4.36363C103.658 5.69318 104.036 7.32954 104.036 9.27273ZM99.1611 9.27273C99.1611 8.22727 99.0219 7.34659 98.7435 6.63068C98.4708 5.90909 98.0645 5.36363 97.5247 4.99432C96.9907 4.61932 96.3316 4.43182 95.5475 4.43182C94.7634 4.43182 94.1015 4.61932 93.5617 4.99432C93.0276 5.36363 92.6213 5.90909 92.3429 6.63068C92.0702 7.34659 91.9338 8.22727 91.9338 9.27273C91.9338 10.3182 92.0702 11.2017 92.3429 11.9233C92.6213 12.6392 93.0276 13.1847 93.5617 13.5597C94.1015 13.929 94.7634 14.1136 95.5475 14.1136C96.3316 14.1136 96.9907 13.929 97.5247 13.5597C98.0645 13.1847 98.4708 12.6392 98.7435 11.9233C99.0219 11.2017 99.1611 10.3182 99.1611 9.27273Z" fill="#475569"/>
<path fill-rule="evenodd" clip-rule="evenodd" d="M2.00195 0C1.47152 0 0.962812 0.231785 0.587739 0.644365C0.212667 1.05695 0.00195313 1.61652 0.00195312 2.2V18.7C0.00195312 19.5752 0.318024 20.4146 0.880633 21.0335C1.44324 21.6523 2.2063 22 3.00195 22H84.002C84.2672 22 84.5215 21.8841 84.7091 21.6778C84.8966 21.4715 85.002 21.1917 85.002 20.9C85.002 20.6083 84.8966 20.3285 84.7091 20.1222C84.5215 19.9159 84.2672 19.8 84.002 19.8H13.002V17.6H15.002C15.2672 17.6 15.5215 17.4841 15.7091 17.2778C15.8966 17.0715 16.002 16.7917 16.002 16.5V2.2C16.002 1.61652 15.7912 1.05695 15.4162 0.644365C15.0411 0.231785 14.5324 0 14.002 0H6.00195V17.6H11.002V19.8H3.00195C2.73674 19.8 2.48238 19.6841 2.29485 19.4778C2.10731 19.2715 2.00195 18.9917 2.00195 18.7C2.00195 18.4083 2.10731 18.1285 2.29485 17.9222C2.48238 17.7159 2.73674 17.6 3.00195 17.6H4.00195V0H2.00195Z" fill="#1E293B"/>
<path fill-rule="evenodd" clip-rule="evenodd" d="M2.00207 0C1.47164 0 0.962934 0.231785 0.587861 0.644365C0.212789 1.05695 0.00207495 1.61652 0.00207495 2.2V18.7C0.00207495 19.5752 -0.0605339 20.8811 0.502075 21.5C1.06468 22.1189 1.57857 22.5 3.57857 22.5H84.0021C84.2673 22.5 84.5216 22.3841 84.7092 22.1778C84.8967 21.9715 85.0021 21.6917 85.0021 21.4C85.0021 21.1083 84.8967 20.3285 84.7092 20.1222C84.5216 19.9159 84.2673 19.8 84.0021 19.8H13.0021V17.6H15.0021C15.2673 17.6 15.5216 17.4841 15.7092 17.2778C15.8967 17.0715 16.0021 16.7917 16.0021 16.5V2.2C16.0021 1.61652 15.7914 1.05695 15.4163 0.644365C15.0412 0.231785 14.5325 0 14.0021 0H6.00208V17.6H11.0021V19.8H3.50208C3.23686 19.8 2.98251 19.6841 2.79497 19.4778C2.60743 19.2715 2.50208 18.9917 2.50208 18.7C2.50208 18.4083 2.60743 18.1285 2.79497 17.9222C2.98251 17.7159 3.23686 17.6 3.50208 17.6H4.00208V0H2.00207Z" fill="#1E293B"/>
</svg>
